<svg width="43" height="43" viewBox="0 0 43 43" fill="none" xmlns="http://www.w3.org/2000/svg">
<path opacity="0.7" fill-rule="evenodd" clip-rule="evenodd" d="M42.9948 19.3289H24.9814C24.2772 18.2753 23.0752 17.5813 21.7108 17.5813C19.5413 17.5813 17.7826 19.3358 17.7826 21.5C17.7826 23.6643 19.5413 25.4187 21.7108 25.4187C23.0979 25.4187 24.3172 24.7014 25.0161 23.6183H43C42.7963 25.6963 42.296 27.6875 41.542 29.5493H14.0571C13.7664 28.9239 13.1314 28.4902 12.3949 28.4902C11.3835 28.4902 10.5635 29.3081 10.5635 30.3172C10.5635 31.3262 11.3835 32.1441 12.3949 32.1441C13.1314 32.1441 13.7663 31.7104 14.0571 31.085H40.8483C40.107 32.5674 39.1992 33.9524 38.1492 35.2155H4.95412C1.86001 31.4933 0 26.7134 0 21.5C0 18.7746 0.508309 16.1677 1.43551 13.7684H32.762C33.0527 14.3938 33.6877 14.8276 34.4242 14.8276C35.4357 14.8276 36.2556 14.0096 36.2556 13.0006C36.2556 11.9916 35.4357 11.1737 34.4242 11.1737C33.6877 11.1737 33.0528 11.6074 32.762 12.2327H2.09931C2.79827 10.7752 3.65699 9.40851 4.65284 8.15518H38.4504C40.9402 11.2887 42.5728 15.1307 42.9948 19.3289ZM37.1073 6.61946C33.1849 2.53978 27.6656 0 21.5516 0C15.4377 0 9.91837 2.53978 5.99596 6.61946H37.1073ZM6.36104 36.7512C10.2572 40.6135 15.6251 43 21.5516 43C27.4782 43 32.8461 40.6135 36.7422 36.7512H6.36104Z" fill="#FCFCFC"/>
</svg>
