<svg width="34" height="33" viewBox="0 0 34 33" fill="none" xmlns="http://www.w3.org/2000/svg">
<g clip-path="url(#clip0_996_716)">
<path fill-rule="evenodd" clip-rule="evenodd" d="M2.93818 18.7163L8.70147 12.9532C8.52195 13.704 8.42814 14.4728 8.42184 15.2448V15.2697C8.42113 16.352 8.59845 17.4271 8.94671 18.4519L5.81005 21.5882C5.41007 21.9874 5.09282 22.4616 4.87651 22.9836C4.66019 23.5056 4.54905 24.0652 4.54948 24.6303V24.6416C4.54906 25.2067 4.66019 25.7662 4.87651 26.2882C5.09283 26.8103 5.41007 27.2844 5.81005 27.6835C6.64638 28.5199 7.7525 28.938 8.85781 28.938C9.96312 28.938 11.069 28.5199 11.9064 27.6835L18.8114 20.7779C19.6477 19.9416 20.0659 18.8365 20.067 17.7302C20.0681 16.624 19.6488 15.5191 18.8114 14.6826C18.0706 13.9398 17.0833 13.4942 16.0361 13.4302C16.0901 13.3653 16.1476 13.3024 16.2087 13.2413L19.3019 10.148C20.1875 10.5576 20.9936 11.1206 21.683 11.8111C23.3124 13.4407 24.1269 15.5863 24.1269 17.7306C24.1269 19.875 23.3124 22.021 21.683 23.6504L14.7774 30.5556C13.1481 32.185 11.0014 32.9999 8.85781 32.9999C6.71423 32.9999 4.56823 32.185 2.93832 30.5556H2.93764C1.31556 28.9328 0.503103 26.7894 0.5 24.6416V24.6303C0.503103 22.483 1.31556 20.339 2.93818 18.7163ZM12.3109 9.34404C10.688 10.9666 9.87504 13.1106 9.87207 15.2579V15.2693C9.87517 17.4163 10.688 19.5604 12.3109 21.183C13.0001 21.8737 13.8057 22.4373 14.6907 22.8481L17.786 19.7526C17.8484 19.6904 17.9074 19.6256 17.9629 19.5581C16.9477 19.4961 15.9522 19.0806 15.1831 18.3116C14.7829 17.9125 14.4656 17.4384 14.2491 16.9164C14.0327 16.3944 13.9215 15.8348 13.9218 15.2697V15.2583C13.9213 14.6933 14.0324 14.1337 14.2487 13.6116C14.465 13.0896 14.7823 12.6154 15.1823 12.2163L22.0882 5.31052C22.4873 4.9105 22.9614 4.59323 23.4833 4.3769C24.0053 4.16058 24.5649 4.04948 25.1299 4.04997H25.1416C25.7067 4.04943 26.2663 4.16052 26.7883 4.37684C27.3103 4.59316 27.7844 4.91046 28.1835 5.31052C29.0198 6.14685 29.438 7.25174 29.438 8.35812C29.438 9.46449 29.0198 10.5695 28.1835 11.4067L25.0505 14.5404C25.6525 16.3075 25.7423 18.2088 25.3097 20.0247L31.0562 14.2783C32.6854 12.6489 33.5 10.5021 33.5 8.35852C33.5 6.21497 32.6855 4.06899 31.0556 2.4391C29.4329 0.815956 27.2887 0.0029676 25.1416 0H25.136H25.1299C22.983 0.00269782 20.8387 0.815686 19.2159 2.43856L12.3109 9.34404Z" fill="#5D15D2"/>
</g>
<defs>
<clipPath id="clip0_996_716">
<rect width="33" height="33" fill="white" transform="translate(0.5)"/>
</clipPath>
</defs>
</svg>
